<?xml version="1.0" encoding="UTF-8"?>
<svg width="28px" height="28px" viewBox="0 0 28 28" version="1.1" xmlns="http://www.w3.org/2000/svg" xmlns:xlink="http://www.w3.org/1999/xlink">
    <title>Shape</title>
    <g id="Symbols" stroke="none" stroke-width="1" fill="none" fill-rule="evenodd">
        <g id="Header" transform="translate(-210.000000, -63.000000)" fill="#EA6C00" fill-rule="nonzero">
            <g id="logo" transform="translate(205.000000, 57.000000)">
                <path d="M32.5116242,14.032272 C31.6014816,12.4677231 29.1744346,11.8057986 27.1114447,10.4819496 C24.9877786,9.15810063 23.2281696,7.17232712 20.9831512,6.39005271 C18.7381327,5.6077783 16.0077049,6.02900298 14.0660673,7.41302694 C12.0637536,8.85722586 10.8502301,11.264224 9.0299449,13.6110473 C7.20965968,15.9578705 4.72193655,18.1843439 5.02531742,20.2302923 C5.32869829,22.2762408 8.42318316,24.2018393 10.1827922,26.6690125 C11.9424012,29.1361856 12.3671345,32.2652833 14.0053912,33.4086074 C15.6436479,34.5519316 18.5561042,33.7696571 21.1651797,33.2882575 C23.7742552,32.8068579 26.1406259,32.626333 28.0215873,31.6635337 C29.9632249,30.6405595 31.4801292,28.8353109 32.086891,26.8495373 C32.7543289,24.8035889 32.450948,22.6372905 32.6329766,20.2904673 C32.8150051,18.003819 33.4217668,15.5968208 32.5116242,14.032272 Z M18.131371,26.2477878 L14.8548576,24.2620143 L14.7941814,24.2018393 C14.2480959,23.8407896 13.944715,23.2390401 13.944715,22.5771156 L13.944715,15.9578705 L17.8886663,13.7313972 L17.8886663,20.4108172 C17.8886663,21.1329166 18.2527233,21.7346662 18.7988089,22.035541 L18.7988089,22.035541 L21.9539699,23.9009646 L18.131371,26.2477878 Z M26.6260353,24.0213145 L22.682084,26.2477878 L22.682084,19.5683678 C22.682084,18.8462684 22.318027,18.2445188 21.7719414,17.943644 L21.7719414,17.943644 L18.6167804,16.0782204 L22.3787032,13.7313972 L25.6552166,15.7171707 L25.7158927,15.7773457 C26.2619783,16.1383954 26.5653592,16.7401449 26.5653592,17.4020694 L26.5653592,24.0213145 L26.6260353,24.0213145 Z" id="Shape"></path>
            </g>
        </g>
    </g>
</svg>