<?xml version="1.0" encoding="utf-8"?>
<!-- Generator: Adobe Illustrator 26.0.1, SVG Export Plug-In . SVG Version: 6.00 Build 0)  -->
<svg version="1.1" xmlns="http://www.w3.org/2000/svg" xmlns:xlink="http://www.w3.org/1999/xlink" x="0px" y="0px"
	 viewBox="0 0 274.3 46.5" style="enable-background:new 0 0 274.3 46.5;" xml:space="preserve">
<style type="text/css">
	.st0{fill-rule:evenodd;clip-rule:evenodd;fill:#FFFFFF;stroke:#E7E7E7;}
	.st1{fill:#1c2128;}
	.st2{fill:#FD7E14;}
	.st3{fill:#FFFFFF;stroke:#E7E7E7;}
</style>
<g id="Ebene_8">
	<g id="FormValidation.js_00000155849070399816164040000018024584242075564678_">
		<path class="st1" d="M69.4,36.1c0,0.1,0,0.2,0,0.3s0,0.2,0.1,0.2c0,0.1,0.1,0.1,0.2,0.1c0.2,0,0.4-0.1,0.6-0.2
			c0.2-0.1,0.4-0.3,0.5-0.5s0.3-0.5,0.4-0.8s0.1-0.6,0.1-1c0-0.5-0.1-1-0.3-1.4c-0.2-0.4-0.5-0.8-0.8-1c-0.3-0.3-0.7-0.5-1.2-0.6
			c-0.4-0.1-0.9-0.2-1.5-0.2c-0.6,0-1.1,0.1-1.6,0.3S65,31.6,64.7,32c-0.3,0.4-0.6,0.8-0.8,1.3c-0.2,0.5-0.3,1-0.3,1.6
			c0,0.6,0.1,1.1,0.3,1.6c0.2,0.5,0.5,0.9,0.8,1.3c0.4,0.3,0.8,0.6,1.3,0.8s1,0.3,1.6,0.3c0.6,0,1.1-0.1,1.6-0.3
			c0.5-0.2,0.9-0.5,1.3-0.8h1.1c-0.5,0.7-1.1,1.3-1.8,1.6c-0.7,0.4-1.5,0.6-2.4,0.6c-0.7,0-1.4-0.1-2-0.4c-0.6-0.3-1.2-0.6-1.7-1.1
			c-0.5-0.5-0.9-1-1.1-1.6c-0.3-0.6-0.4-1.3-0.4-2c0-0.7,0.1-1.4,0.4-2c0.3-0.6,0.6-1.2,1.1-1.6c0.5-0.5,1-0.8,1.6-1.1
			c0.6-0.3,1.3-0.4,2-0.4c0.6,0,1.2,0.1,1.8,0.3s1.1,0.5,1.5,0.8c0.4,0.4,0.8,0.8,1,1.3s0.4,1.1,0.4,1.7c0,0.7-0.1,1.3-0.4,1.8
			s-0.5,0.9-0.9,1.2c-0.3,0.3-0.7,0.6-1.1,0.7c-0.4,0.1-0.6,0.2-0.9,0.2c-0.3,0-0.5-0.1-0.7-0.2c-0.2-0.1-0.3-0.3-0.3-0.6h0
			c-0.2,0.3-0.4,0.5-0.6,0.6s-0.5,0.2-0.8,0.2s-0.6-0.1-0.8-0.2c-0.3-0.1-0.5-0.3-0.7-0.5c-0.2-0.2-0.3-0.5-0.5-0.7
			c-0.1-0.3-0.2-0.6-0.2-0.9c0-0.4,0.1-0.8,0.2-1.3c0.1-0.4,0.3-0.8,0.6-1.1c0.3-0.3,0.6-0.6,0.9-0.8c0.4-0.2,0.8-0.3,1.2-0.3
			c0.3,0,0.6,0.1,0.9,0.2c0.3,0.1,0.5,0.4,0.7,0.7l0.2-0.7h1.1l-0.9,3.5C69.4,35.9,69.4,36,69.4,36.1z M66.1,36.2
			c0.2,0.2,0.5,0.3,0.8,0.3c0.2,0,0.5-0.1,0.7-0.2c0.2-0.1,0.4-0.3,0.5-0.5s0.3-0.4,0.3-0.7c0.1-0.2,0.1-0.5,0.1-0.7
			c0-0.3-0.1-0.6-0.3-0.8c-0.2-0.2-0.5-0.3-0.7-0.3c-0.2,0-0.5,0.1-0.7,0.2c-0.2,0.1-0.4,0.3-0.5,0.5c-0.1,0.2-0.3,0.4-0.3,0.6
			c-0.1,0.2-0.1,0.5-0.1,0.7C65.8,35.7,65.9,36,66.1,36.2z M78.3,30c0.5,0,0.9,0,1.3,0.1c0.4,0.1,0.7,0.2,1,0.4
			c0.3,0.2,0.5,0.4,0.6,0.7s0.2,0.7,0.2,1.1c0,0.5-0.1,0.9-0.3,1.2c-0.2,0.3-0.6,0.6-1,0.8c0.6,0.2,1,0.5,1.3,0.9
			c0.3,0.4,0.4,1,0.4,1.6c0,0.5-0.1,0.9-0.3,1.3c-0.2,0.4-0.4,0.7-0.8,0.9s-0.7,0.4-1.1,0.5c-0.4,0.1-0.8,0.2-1.3,0.2h-4.7V30H78.3z
			 M78,33.9c0.4,0,0.7-0.1,0.9-0.3s0.4-0.5,0.4-0.9c0-0.2,0-0.4-0.1-0.6c-0.1-0.1-0.2-0.3-0.3-0.3c-0.1-0.1-0.3-0.1-0.5-0.2
			c-0.2,0-0.4,0-0.6,0h-2v2.3H78z M78.1,38c0.2,0,0.4,0,0.6-0.1c0.2,0,0.4-0.1,0.5-0.2c0.1-0.1,0.3-0.2,0.3-0.4
			c0.1-0.2,0.1-0.4,0.1-0.6c0-0.5-0.1-0.9-0.4-1.1c-0.3-0.2-0.7-0.3-1.1-0.3h-2.3V38H78.1z M90.4,39c-0.7,0.6-1.8,1-3,1
			c-1.3,0-2.3-0.3-3.1-1c-0.7-0.6-1.1-1.6-1.1-2.9v-6h2.1v6c0,0.3,0,0.5,0.1,0.8c0,0.3,0.1,0.5,0.3,0.7c0.1,0.2,0.3,0.4,0.6,0.5
			c0.3,0.1,0.6,0.2,1,0.2c0.8,0,1.3-0.2,1.6-0.5c0.3-0.3,0.4-0.9,0.4-1.6v-6h2.1v6C91.5,37.3,91.1,38.3,90.4,39z M97.5,30
			c0.6,0,1.2,0.1,1.7,0.3c0.5,0.2,1,0.5,1.4,0.9c0.4,0.4,0.7,0.9,0.9,1.5c0.2,0.6,0.3,1.3,0.3,2.1c0,0.7-0.1,1.4-0.3,2
			c-0.2,0.6-0.5,1.1-0.8,1.6c-0.4,0.4-0.8,0.8-1.4,1c-0.5,0.2-1.2,0.4-1.9,0.4h-4.2V30H97.5z M97.4,37.9c0.3,0,0.6,0,0.9-0.2
			c0.3-0.1,0.5-0.3,0.8-0.5c0.2-0.2,0.4-0.5,0.5-0.9s0.2-0.8,0.2-1.4c0-0.5,0-0.9-0.1-1.3c-0.1-0.4-0.3-0.7-0.5-1
			c-0.2-0.3-0.5-0.5-0.9-0.6c-0.4-0.2-0.8-0.2-1.3-0.2h-1.5v6.1H97.4z M107.6,30c0.6,0,1.2,0.1,1.7,0.3c0.5,0.2,1,0.5,1.4,0.9
			c0.4,0.4,0.7,0.9,0.9,1.5c0.2,0.6,0.3,1.3,0.3,2.1c0,0.7-0.1,1.4-0.3,2c-0.2,0.6-0.5,1.1-0.8,1.6c-0.4,0.4-0.8,0.8-1.4,1
			c-0.5,0.2-1.2,0.4-1.9,0.4h-4.2V30H107.6z M107.5,37.9c0.3,0,0.6,0,0.9-0.2c0.3-0.1,0.5-0.3,0.8-0.5c0.2-0.2,0.4-0.5,0.5-0.9
			s0.2-0.8,0.2-1.4c0-0.5,0-0.9-0.1-1.3c-0.1-0.4-0.3-0.7-0.5-1c-0.2-0.3-0.5-0.5-0.9-0.6c-0.4-0.2-0.8-0.2-1.3-0.2h-1.5v6.1H107.5z
			 M120.8,30v1.8h-5.1v2.1h4.7v1.7h-4.7v2.4h5.2v1.8h-7.4V30H120.8z M124.5,30l4.1,6.5h0V30h2v9.7h-2.1l-4-6.5h0v6.5h-2V30H124.5z
			 M137,30c0.5,0,0.9,0,1.3,0.1c0.4,0.1,0.7,0.2,1,0.4c0.3,0.2,0.5,0.4,0.6,0.7s0.2,0.7,0.2,1.1c0,0.5-0.1,0.9-0.3,1.2
			c-0.2,0.3-0.6,0.6-1,0.8c0.6,0.2,1,0.5,1.3,0.9c0.3,0.4,0.4,1,0.4,1.6c0,0.5-0.1,0.9-0.3,1.3c-0.2,0.4-0.4,0.7-0.8,0.9
			s-0.7,0.4-1.1,0.5c-0.4,0.1-0.8,0.2-1.3,0.2h-4.7V30H137z M136.7,33.9c0.4,0,0.7-0.1,0.9-0.3s0.4-0.5,0.4-0.9c0-0.2,0-0.4-0.1-0.6
			c-0.1-0.1-0.2-0.3-0.3-0.3c-0.1-0.1-0.3-0.1-0.5-0.2c-0.2,0-0.4,0-0.6,0h-2v2.3H136.7z M136.9,38c0.2,0,0.4,0,0.6-0.1
			c0.2,0,0.4-0.1,0.5-0.2c0.1-0.1,0.3-0.2,0.3-0.4c0.1-0.2,0.1-0.4,0.1-0.6c0-0.5-0.1-0.9-0.4-1.1c-0.3-0.2-0.7-0.3-1.1-0.3h-2.3V38
			H136.9z M147.3,30c0.4,0,0.8,0.1,1.2,0.2c0.3,0.1,0.6,0.3,0.9,0.6s0.4,0.5,0.6,0.9c0.1,0.3,0.2,0.7,0.2,1c0,0.6-0.1,1.1-0.4,1.5
			c-0.2,0.4-0.6,0.7-1.2,1v0c0.3,0.1,0.5,0.2,0.7,0.3s0.3,0.3,0.4,0.5c0.1,0.2,0.2,0.4,0.2,0.7s0.1,0.5,0.1,0.7c0,0.2,0,0.3,0,0.5
			c0,0.2,0,0.4,0,0.6c0,0.2,0.1,0.4,0.1,0.6s0.1,0.4,0.2,0.5h-2.1c-0.1-0.3-0.2-0.7-0.2-1.1s-0.1-0.8-0.1-1.2
			c-0.1-0.5-0.2-0.9-0.5-1.1c-0.2-0.2-0.6-0.4-1.2-0.4h-2.1v3.8H142V30H147.3z M146.5,34.4c0.5,0,0.9-0.1,1.1-0.3s0.4-0.6,0.4-1.1
			c0-0.5-0.1-0.8-0.4-1s-0.6-0.3-1.1-0.3h-2.3v2.7H146.5z M151.8,32.9c0.2-0.6,0.5-1.2,0.9-1.6c0.4-0.5,0.9-0.8,1.5-1.1
			c0.6-0.3,1.3-0.4,2-0.4c0.8,0,1.4,0.1,2,0.4c0.6,0.3,1.1,0.6,1.5,1.1c0.4,0.5,0.7,1,0.9,1.6c0.2,0.6,0.3,1.3,0.3,2
			c0,0.7-0.1,1.4-0.3,2c-0.2,0.6-0.5,1.1-0.9,1.6c-0.4,0.5-0.9,0.8-1.5,1.1c-0.6,0.3-1.3,0.4-2,0.4c-0.7,0-1.4-0.1-2-0.4
			c-0.6-0.3-1.1-0.6-1.5-1.1c-0.4-0.5-0.7-1-0.9-1.6s-0.3-1.3-0.3-2C151.4,34.1,151.5,33.5,151.8,32.9z M153.7,36.1
			c0.1,0.4,0.2,0.7,0.5,1c0.2,0.3,0.5,0.6,0.8,0.7c0.3,0.2,0.7,0.3,1.2,0.3s0.9-0.1,1.2-0.3c0.3-0.2,0.6-0.4,0.8-0.7
			c0.2-0.3,0.4-0.7,0.5-1c0.1-0.4,0.1-0.8,0.1-1.2c0-0.4,0-0.8-0.1-1.2s-0.2-0.8-0.5-1.1c-0.2-0.3-0.5-0.6-0.8-0.7
			c-0.3-0.2-0.7-0.3-1.2-0.3s-0.9,0.1-1.2,0.3c-0.3,0.2-0.6,0.4-0.8,0.7c-0.2,0.3-0.4,0.7-0.5,1.1s-0.1,0.8-0.1,1.2
			C153.6,35.3,153.6,35.7,153.7,36.1z M168.7,32.6c-0.1-0.2-0.3-0.4-0.5-0.5c-0.2-0.2-0.4-0.3-0.6-0.4c-0.2-0.1-0.5-0.1-0.8-0.1
			c-0.5,0-0.9,0.1-1.2,0.3c-0.3,0.2-0.6,0.4-0.8,0.7c-0.2,0.3-0.4,0.7-0.5,1.1s-0.1,0.8-0.1,1.2c0,0.4,0,0.8,0.1,1.2
			c0.1,0.4,0.2,0.7,0.5,1c0.2,0.3,0.5,0.6,0.8,0.7c0.3,0.2,0.7,0.3,1.2,0.3c0.7,0,1.2-0.2,1.5-0.6s0.6-0.9,0.7-1.6h2.1
			c-0.1,0.6-0.2,1.2-0.4,1.6c-0.2,0.5-0.5,0.9-0.9,1.3c-0.4,0.3-0.8,0.6-1.3,0.8s-1,0.3-1.6,0.3c-0.7,0-1.4-0.1-2-0.4
			c-0.6-0.3-1.1-0.6-1.5-1.1c-0.4-0.5-0.7-1-0.9-1.6s-0.3-1.3-0.3-2c0-0.7,0.1-1.4,0.3-2s0.5-1.2,0.9-1.6c0.4-0.5,0.9-0.8,1.5-1.1
			c0.6-0.3,1.3-0.4,2-0.4c0.5,0,1,0.1,1.5,0.2s0.9,0.4,1.3,0.7c0.4,0.3,0.7,0.7,0.9,1.1c0.2,0.4,0.4,0.9,0.5,1.5h-2.1
			C168.9,33,168.8,32.8,168.7,32.6z M174.7,30v4l3.8-4h2.7l-3.8,3.8l4.2,5.9h-2.7l-2.9-4.4l-1.2,1.2v3.1h-2.1V30H174.7z M63.4,22.9
			V8.5h9.5v2.8h-6.1v3.5h5.5v2.7h-5.5v5.4H63.4z M86.8,20c-0.5,1-1.2,1.7-2.2,2.3s-2.1,0.8-3.4,0.8c-1.3,0-2.5-0.3-3.4-0.8
			c-1-0.5-1.7-1.3-2.2-2.3s-0.8-2.1-0.8-3.5v-1.7c0-1.4,0.2-2.5,0.8-3.5c0.5-1,1.2-1.8,2.2-2.3c1-0.5,2.1-0.8,3.4-0.8
			c1.4,0,2.5,0.3,3.4,0.8c0.9,0.5,1.7,1.3,2.2,2.3c0.5,1,0.8,2.2,0.8,3.5v1.7C87.5,17.9,87.3,19.1,86.8,20z M83.7,12.8
			c-0.2-0.6-0.6-1-1-1.3c-0.4-0.3-0.9-0.4-1.5-0.4c-0.6,0-1.1,0.1-1.5,0.4c-0.4,0.3-0.8,0.7-1,1.3c-0.2,0.6-0.4,1.2-0.4,2.1v1.7
			c0,0.8,0.1,1.5,0.4,2.1c0.2,0.6,0.6,1,1,1.3c0.4,0.3,0.9,0.4,1.5,0.4c0.6,0,1.1-0.1,1.5-0.4c0.4-0.3,0.8-0.7,1-1.3
			c0.2-0.6,0.4-1.3,0.4-2.1v-1.7C84,14,83.9,13.3,83.7,12.8z M99.2,9.1c0.8,0.4,1.4,0.9,1.8,1.6s0.6,1.5,0.6,2.5
			c0,0.7-0.1,1.4-0.4,1.9c-0.3,0.5-0.6,1-1,1.3c-0.4,0.3-0.8,0.6-1.1,0.8l2.9,5.6h-3.8l-2.4-5.1h-2v5.1h-3.4V8.5h6.1
			C97.5,8.5,98.4,8.7,99.2,9.1z M95.8,15.3c0.7,0,1.2-0.2,1.6-0.5c0.4-0.3,0.6-0.9,0.6-1.5c0-0.7-0.2-1.2-0.6-1.6
			c-0.4-0.4-1-0.5-1.6-0.5h-2.2v4.2H95.8z M104.4,22.9V8.5h3.6l3.7,8.2h0.1l3.7-8.2h3.5v14.3h-3.1v-8.9h-0.2l-3,6.8h-2l-3-6.8h-0.2
			v8.9H104.4z M120.9,8.5h4l2.7,10.7h0.2l2.7-10.7h3.8l-4.5,14.3h-4.3L120.9,8.5z M134.3,22.9l4.6-14.3h4.2l4.6,14.3H144l-0.9-3.3
			h-4.4l-0.9,3.3H134.3z M140.8,11.6l-1.5,5.4h3.2l-1.5-5.4H140.8z M158.9,22.9h-9.2V8.5h3.5V20h5.7V22.9z M161.2,22.9V8.5h3.5v14.3
			H161.2z M173.6,8.5c1.5,0,2.7,0.3,3.7,0.9c1,0.6,1.7,1.4,2.1,2.4c0.5,1.1,0.7,2.3,0.7,3.8c0,1.5-0.2,2.8-0.7,3.9
			c-0.5,1.1-1.2,1.9-2.1,2.5c-1,0.6-2.2,0.9-3.6,0.9H168V8.5H173.6z M171.4,20.1h1.6c0.6,0,1.1-0.1,1.6-0.3c0.4-0.2,0.8-0.5,1.1-0.8
			c0.3-0.4,0.5-0.8,0.6-1.4s0.2-1.2,0.2-1.9c0-1-0.1-1.8-0.4-2.5c-0.2-0.7-0.6-1.2-1.1-1.5c-0.5-0.3-1.2-0.5-2-0.5h-1.6V20.1z
			 M180.9,22.9l4.6-14.3h4.2l4.6,14.3h-3.7l-0.9-3.3h-4.4l-0.9,3.3H180.9z M187.5,11.6l-1.5,5.4h3.2l-1.5-5.4H187.5z M198.2,22.9
			V11.4h-3.9V8.5h11.2v2.8h-3.9v11.5H198.2z M207.6,22.9V8.5h3.5v14.3H207.6z M225.8,20c-0.5,1-1.2,1.7-2.2,2.3s-2.1,0.8-3.4,0.8
			c-1.3,0-2.5-0.3-3.4-0.8c-1-0.5-1.7-1.3-2.2-2.3s-0.8-2.1-0.8-3.5v-1.7c0-1.4,0.2-2.5,0.8-3.5c0.5-1,1.2-1.8,2.2-2.3
			c1-0.5,2.1-0.8,3.4-0.8c1.4,0,2.5,0.3,3.4,0.8c0.9,0.5,1.7,1.3,2.2,2.3c0.5,1,0.8,2.2,0.8,3.5v1.7C226.5,17.9,226.3,19.1,225.8,20
			z M222.7,12.8c-0.2-0.6-0.6-1-1-1.3c-0.4-0.3-0.9-0.4-1.5-0.4c-0.6,0-1.1,0.1-1.5,0.4c-0.4,0.3-0.8,0.7-1,1.3
			c-0.2,0.6-0.4,1.2-0.4,2.1v1.7c0,0.8,0.1,1.5,0.4,2.1c0.2,0.6,0.6,1,1,1.3c0.4,0.3,0.9,0.4,1.5,0.4c0.6,0,1.1-0.1,1.5-0.4
			c0.4-0.3,0.8-0.7,1-1.3c0.2-0.6,0.4-1.3,0.4-2.1v-1.7C223,14,222.9,13.3,222.7,12.8z M229.3,22.9V8.5h2.7l5.7,8.5h0.1V8.5h3.2
			v14.3h-2.7l-5.8-8.6h-0.1v8.6H229.3z M244.7,19.7c0.4-0.3,0.9-0.5,1.5-0.5c0.6,0,1.1,0.2,1.5,0.5c0.4,0.4,0.6,0.8,0.6,1.4
			c0,0.6-0.2,1.1-0.6,1.4c-0.4,0.4-0.9,0.5-1.5,0.5c-0.6,0-1-0.2-1.4-0.5c-0.4-0.3-0.6-0.8-0.6-1.4C244.1,20.5,244.3,20,244.7,19.7z
			 M253.3,18.3c0,0.4,0.1,0.7,0.2,1c0.1,0.3,0.3,0.5,0.6,0.6s0.6,0.2,0.9,0.2c0.6,0,1.1-0.2,1.3-0.5s0.4-0.9,0.4-1.5V8.5h3.5v9.5
			c0,1.7-0.5,2.9-1.4,3.8c-0.9,0.9-2.2,1.3-3.8,1.3c-0.9,0-1.6-0.1-2.3-0.4c-0.6-0.3-1.2-0.6-1.6-1.1s-0.7-1-0.9-1.6
			c-0.2-0.6-0.3-1.2-0.3-1.8H253.3z M266,18.8c0,0.2,0.1,0.5,0.2,0.7c0.1,0.2,0.3,0.4,0.5,0.6c0.2,0.2,0.5,0.3,0.8,0.4
			c0.3,0.1,0.7,0.1,1,0.1c0.5,0,1-0.1,1.3-0.2s0.6-0.3,0.8-0.6s0.3-0.5,0.3-0.8c0-0.4-0.2-0.8-0.5-1c-0.4-0.2-0.9-0.4-1.6-0.6
			l-2-0.4c-0.8-0.2-1.4-0.4-2-0.7c-0.6-0.3-1-0.8-1.3-1.3c-0.3-0.5-0.5-1.2-0.5-2c0-0.9,0.2-1.7,0.7-2.4c0.5-0.7,1.1-1.2,2-1.5
			c0.8-0.4,1.8-0.5,2.9-0.5c1.2,0,2.2,0.2,3,0.6c0.8,0.4,1.4,0.9,1.8,1.6c0.4,0.6,0.6,1.3,0.7,2.1h-3.2c0-0.3-0.2-0.6-0.3-0.8
			c-0.2-0.2-0.4-0.4-0.8-0.6c-0.3-0.2-0.7-0.2-1.2-0.2c-0.7,0-1.2,0.2-1.6,0.5c-0.4,0.3-0.6,0.7-0.6,1.1c0,0.4,0.2,0.7,0.5,0.9
			c0.3,0.2,0.8,0.4,1.4,0.5l2.1,0.4c0.7,0.1,1.4,0.4,2,0.7c0.6,0.3,1.1,0.7,1.4,1.3c0.3,0.6,0.5,1.3,0.5,2.1c0,0.9-0.2,1.7-0.7,2.4
			c-0.4,0.7-1.1,1.2-2,1.6c-0.9,0.4-1.9,0.6-3.2,0.6c-1,0-1.9-0.1-2.6-0.4c-0.7-0.2-1.3-0.6-1.8-1c-0.5-0.4-0.8-0.9-1-1.4
			c-0.2-0.5-0.3-1.1-0.4-1.6H266z"/>
		<path class="st2" d="M45.4,13.3c-1.5-2.6-5.5-3.7-8.9-5.9C33,5.2,30,2,26.3,0.7C22.6-0.6,18.1,0,14.9,2.4
			c-3.2,2.3-5.2,6.4-8.2,10.2c-3,3.9-7.1,7.6-6.6,11c0.5,3.4,5.6,6.6,8.5,10.7c2.9,4.1,3.6,9.3,6.3,11.2c2.7,1.9,7.5,0.6,11.8-0.2
			c4.3-0.8,8.2-1.1,11.3-2.7c3.2-1.7,5.7-4.7,6.7-8c1.1-3.4,0.6-7,0.9-10.9C45.9,19.9,46.9,15.9,45.4,13.3z M21.7,33.7l-5.4-3.3
			l-0.1-0.1c-0.9-0.6-1.4-1.6-1.4-2.7V16.5l6.5-3.7v11.1c0,1.2,0.6,2.2,1.5,2.7l0,0l5.2,3.1L21.7,33.7z M35.7,30l-6.5,3.7V22.5
			c0-1.2-0.6-2.2-1.5-2.7l0,0l-5.2-3.1l6.2-3.9l5.4,3.3l0.1,0.1c0.9,0.6,1.4,1.6,1.4,2.7V30z"/>
	</g>
</g>
<g id="Dummy_00000047768938592301002770000017765493491137531289_">
</g>
</svg>
