<svg width="316" height="67" xmlns="http://www.w3.org/2000/svg">
  <path d="M112.1 14c0 1.2-.1 2.3-.2 3.4s-.3 2-.6 2.8-.8 1.5-1.3 1.9c-.6.5-1.4.7-2.4.7-.2 0-.5 0-.8-.1-.3-.1-.6-.2-.9-.4-.3-.2-.5-.4-.7-.7-.2-.3-.4-.7-.4-1.1-.3.4-.8.8-1.4 1-.6.3-1.4.4-2.3.4-.5 0-1-.1-1.5-.2s-.9-.4-1.3-.9c-.4-.4-.7-1-1-1.8-.2-.8-.4-1.8-.4-3.1s.2-2.4.5-3.3c.3-.8.8-1.5 1.4-2 .6-.5 1.3-.8 2.1-1 .8-.2 1.6-.3 2.5-.3.5 0 1 0 1.6.1.6.1 1.1.2 1.6.3v9.6c0 .3.1.6.3.9.2.3.5.4.9.4s.7-.2 1-.5c.2-.3.4-.8.6-1.4.1-.6.2-1.3.3-2.1 0-.8.1-1.8.1-2.8 0-1.5-.1-2.8-.3-3.7-.2-1-.5-1.7-1.1-2.2-.5-.5-1.3-.9-2.2-1.1-1-.2-2.3-.3-3.8-.3-1.6 0-2.8.1-3.8.4-1 .3-1.7.8-2.3 1.4-.5.7-.9 1.6-1.1 2.8-.2 1.2-.3 2.6-.3 4.4 0 1.6.1 2.9.2 4 .2 1.1.5 2 1 2.7.5.7 1.3 1.2 2.2 1.5 1 .3 2.2.5 3.8.5h1.3c.5 0 .9-.1 1.4-.1.5 0 .9-.1 1.3-.1s.7-.1.9-.1v2.2c-.3 0-.6.1-1 .1s-.8.1-1.3.1c-.4 0-.9.1-1.3.1h-1.2c-2 0-3.6-.2-4.9-.6-1.3-.4-2.3-1-3-1.9-.7-.9-1.3-2-1.5-3.4-.3-1.4-.4-3.1-.4-5.1 0-2.2.2-4 .5-5.4s.9-2.6 1.7-3.4c.8-.9 1.8-1.5 3.1-1.8 1.3-.4 2.8-.5 4.7-.5 1.8 0 3.4.1 4.6.4s2.3.7 3.1 1.4c.8.7 1.4 1.7 1.7 2.9.1 1.4.3 3 .3 5zm-8-2.2c-.1 0-.3-.1-.5-.1h-.7c-.5 0-.9.1-1.4.2-.4.1-.8.3-1.1.6-.3.3-.6.7-.8 1.3-.2.6-.3 1.3-.3 2.2 0 .8.1 1.5.2 2s.3.9.5 1.2.4.4.7.5c.3.1.6.1 1 .1.5 0 .8-.1 1.1-.2s.6-.3.7-.5.3-.4.4-.7.1-.5.1-.7v-5.9zM128.2 17.7c0 1.7-.1 3.1-.3 4.3-.2 1.1-.6 2.1-1.1 2.8s-1.2 1.2-2 1.5c-.8.3-1.9.4-3.1.4h-1.5c-.4 0-.8-.1-1.1-.1-.3 0-.7-.1-.9-.1-.3 0-.6-.1-.9-.1V4.8h2.6v7.3c1-.9 2.1-1.4 3.4-1.4 1.8 0 3.1.6 3.8 1.8s1.1 2.9 1.1 5.2zm-5.4-4.7c-.4 0-.8.1-1.2.2-.4.2-.7.4-.9.7-.3.3-.5.6-.6.9-.1.3-.2.6-.2.9v8.7c.2 0 .5.1.8.1h1.2c.7 0 1.3-.1 1.8-.4.5-.3.8-.7 1.1-1.2.3-.5.4-1.2.5-2 .1-.8.2-1.7.2-2.8 0-1 0-1.8-.1-2.4-.1-.6-.2-1.2-.5-1.6-.2-.4-.5-.7-.8-.8-.4-.2-.8-.3-1.3-.3zM140.8 26.5l-.2-1.3c-.4.5-.9.8-1.5 1.1-.6.3-1.3.4-2 .4-.9 0-1.6-.1-2.2-.3s-1-.6-1.4-1c-.3-.5-.6-1-.7-1.8-.1-.7-.2-1.5-.2-2.5V11h2.6v10.4c0 .5 0 .9.1 1.3s.2.7.3 1c.2.3.4.5.7.6.3.1.7.2 1.1.2.4 0 .8-.1 1.2-.2.4-.2.7-.4.9-.6.2-.2.4-.5.6-.8.1-.3.2-.6.2-.9V11h2.6v15.5h-2.1zM156.4 26.5l-.2-1.3c-.5.5-1 .8-1.6 1.1-.6.3-1.3.4-2.1.4-1 0-1.8-.2-2.4-.5-.6-.3-1.2-.8-1.6-1.4-.4-.6-.7-1.4-.8-2.3-.2-.9-.2-2-.2-3.2 0-3.1.5-5.3 1.6-6.6 1.1-1.4 2.8-2 5.2-2h1c.3 0 .5.1.8.1v-6h2.6v21.7h-2.3zm-3.4-2.1c.5 0 .9-.1 1.3-.2.4-.2.7-.4.9-.7l.6-.9c.1-.3.2-.6.2-.9V13c-.2 0-.5-.1-.8-.1H154c-.7 0-1.4.2-1.8.4-.5.3-.9.7-1.1 1.3-.3.6-.5 1.3-.6 2.1-.1.8-.2 1.8-.2 2.9 0 .9.1 1.7.2 2.3.1.6.3 1.1.5 1.5.2.4.5.6.9.8.2.2.6.2 1.1.2zM172 26.5l-.2-1.3c-.5.5-1 .8-1.6 1.1-.6.3-1.3.4-2.1.4-1 0-1.8-.2-2.4-.5-.6-.3-1.2-.8-1.6-1.4-.4-.6-.7-1.4-.8-2.3-.2-.9-.2-2-.2-3.2 0-3.1.5-5.3 1.6-6.6 1.1-1.4 2.8-2 5.2-2h1c.3 0 .5.1.8.1v-6h2.6v21.7H172zm-3.4-2.1c.5 0 .9-.1 1.3-.2.4-.2.7-.4.9-.7l.6-.9c.1-.3.2-.6.2-.9V13c-.2 0-.5-.1-.8-.1h-1.2c-.7 0-1.4.2-1.8.4-.5.3-.9.7-1.1 1.3-.3.6-.5 1.3-.6 2.1-.1.8-.2 1.8-.2 2.9 0 .9.1 1.7.2 2.3.1.6.3 1.1.5 1.5.2.4.5.6.9.8.2.2.6.2 1.1.2zM181.3 19.6c0 1 .1 1.8.2 2.5.1.6.3 1.1.5 1.5.2.4.5.6.8.7s.7.2 1.1.2c.9 0 1.7-.1 2.4-.2s1.3-.2 1.8-.3v2.2c-.5.1-1.1.3-1.9.4-.8.1-1.4.1-2 .1-.9 0-1.7-.1-2.4-.3-.7-.2-1.3-.6-1.8-1.1-.5-.6-.8-1.4-1.1-2.4-.2-1-.4-2.4-.4-4.2 0-1.4.1-2.6.4-3.7.2-1 .6-1.8 1.1-2.5.5-.6 1.1-1.1 1.8-1.4.7-.3 1.5-.4 2.4-.4 1.8 0 3.1.6 3.8 1.8.8 1.2 1.2 2.8 1.2 4.8v2.3h-7.9zm3-6.7c-.5 0-.9.1-1.3.2s-.6.4-.9.7c-.2.4-.4.8-.5 1.4s-.2 1.3-.2 2.2h5.4v-.8c0-1.2-.2-2.1-.5-2.8-.4-.5-1.1-.9-2-.9zM193.7 26.5V11h2.2l.2 1.4c1-1.1 2.3-1.6 3.8-1.6.9 0 1.6.1 2.2.3.6.2 1.1.5 1.4 1 .4.4.6 1 .8 1.7s.2 1.5.2 2.5v10.2h-2.6V15.9c0-1-.2-1.7-.5-2.2s-1-.7-2-.7c-.4 0-.8.1-1.2.2-.4.2-.7.4-1 .7-.3.3-.5.6-.7.9-.2.3-.2.6-.2.9v10.9h-2.6zM220.3 17.7c0 1.7-.1 3.1-.3 4.3-.2 1.1-.6 2.1-1.1 2.8s-1.2 1.2-2 1.5c-.8.3-1.9.4-3.1.4h-1.5c-.4 0-.8-.1-1.1-.1s-.7-.1-.9-.1-.6-.1-.9-.1V4.8h2.6v7.3c1-.9 2.1-1.4 3.4-1.4 1.8 0 3.1.6 3.8 1.8s1.1 2.9 1.1 5.2zm-5.4-4.7c-.4 0-.8.1-1.2.2-.4.2-.7.4-.9.7-.3.3-.5.6-.6.9-.1.3-.2.6-.2.9v8.7c.2 0 .5.1.8.1h1.2c.7 0 1.3-.1 1.8-.4s.8-.7 1.1-1.2c.3-.5.4-1.2.5-2 .1-.8.2-1.7.2-2.8 0-1 0-1.8-.1-2.4-.1-.6-.2-1.2-.5-1.6-.2-.4-.5-.7-.8-.8s-.8-.3-1.3-.3zM224.8 26.5V11h2.2l.2 1.6c.4-.5.8-1 1.3-1.3.5-.3 1.2-.5 1.9-.5h1c.3 0 .5.1.7.1v2.8c-.3-.1-.6-.1-.9-.2-.3-.1-.7-.1-.9-.1-.5 0-.9.1-1.3.3-.3.2-.6.5-.8.8-.2.3-.4.7-.5 1.1-.1.4-.1.8-.1 1.3v9.5h-2.8zM246.2 18.4c0 1.6-.1 3-.4 4s-.6 1.9-1.1 2.5c-.5.6-1.1 1.1-1.8 1.3-.7.2-1.6.4-2.6.4s-1.8-.1-2.5-.4-1.3-.7-1.8-1.3c-.5-.6-.9-1.5-1.1-2.5-.3-1.1-.4-2.4-.4-4 0-2.6.5-4.6 1.4-5.8 1-1.2 2.4-1.8 4.5-1.8 2 0 3.5.6 4.5 1.8.8 1.2 1.3 3.2 1.3 5.8zm-2.7.5c0-1.1-.1-2-.2-2.8-.1-.8-.3-1.4-.5-1.8-.2-.5-.6-.8-1-1-.4-.2-.9-.3-1.5-.3s-1.1.1-1.6.3c-.4.2-.7.5-1 1s-.4 1.1-.5 1.8-.2 1.7-.2 2.8c0 2 .2 3.5.7 4.3.5.9 1.3 1.3 2.5 1.3s2-.4 2.5-1.3.8-2.3.8-4.3zM259 26.2c-.5.1-1 .3-1.6.4-.6.1-1.2.1-1.7.1-.9 0-1.7-.1-2.4-.3-.7-.2-1.3-.6-1.7-1.2-.5-.6-.8-1.4-1-2.5-.2-1.1-.3-2.5-.3-4.3 0-1.4.1-2.6.3-3.5s.5-1.8 1-2.4c.4-.6 1-1.1 1.7-1.3.7-.3 1.5-.4 2.4-.4.5 0 1.1.1 1.8.2s1.2.2 1.7.3v2.3c-.6-.1-1.1-.2-1.6-.3-.5-.1-1.2-.1-2-.1-.5 0-.8.1-1.1.3-.3.2-.6.5-.8 1-.2.5-.4 1.1-.5 1.8-.1.8-.1 1.7-.1 2.9s.1 2.1.2 2.8c.1.7.3 1.2.5 1.6s.5.6.8.7c.3.1.7.2 1.1.2.8 0 1.5-.1 2.1-.2l1.5-.3v2.2zM270.9 26.5l-4.2-7.7-.9 1.1v6.6h-2.6V4.8h2.6v11.8l4.7-5.6h3.2l-5.2 6 5.5 9.5h-3.1zM96.4 41.1v5.8h6.1v3.3h-6.1v9.2h-4.2V37.8h11.1v3.3h-6.9zM118.9 51.4c0 1.6-.1 3-.4 4s-.7 1.9-1.3 2.5c-.6.6-1.3 1.1-2.1 1.3-.8.2-1.8.4-2.9.4-1.1 0-2.1-.1-2.9-.4-.8-.2-1.5-.7-2.1-1.3-.6-.6-1-1.5-1.3-2.5-.3-1.1-.4-2.4-.4-4 0-2.6.5-4.6 1.6-5.8 1-1.2 2.7-1.8 5.1-1.8 2.3 0 4 .6 5.1 1.8 1 1.3 1.6 3.2 1.6 5.8zm-4.2.5c0-.9 0-1.7-.1-2.3-.1-.6-.2-1.1-.4-1.5-.2-.4-.4-.6-.8-.8s-.7-.2-1.2-.2-.8.1-1.1.2-.6.4-.7.8c-.2.4-.3.9-.4 1.5-.1.6-.1 1.4-.1 2.3 0 .9 0 1.6.1 2.2.1.6.2 1 .4 1.4s.4.6.7.7c.3.1.7.2 1.2.2s.9-.1 1.2-.2c.3-.1.6-.4.8-.7s.3-.8.4-1.4c-.1-.6 0-1.3 0-2.2zM122.4 59.5V44h3.3l.3 1.4c.4-.5.9-.9 1.4-1.2.5-.3 1.1-.5 1.8-.5.5 0 1 .1 1.4.2V48c-.3-.1-.5-.1-.8-.1h-.8c-.5 0-.9.1-1.3.4-.3.3-.6.6-.8 1-.2.4-.4.9-.4 1.4-.1.5-.1 1.1-.1 1.6v7.2h-4zM133.4 59.5V44h3.3l.2 1.1c.5-.4 1-.8 1.5-1 .6-.3 1.2-.4 1.9-.4 1 0 1.8.1 2.4.4.6.3 1.1.7 1.4 1.2.5-.5 1-.9 1.7-1.1.6-.3 1.4-.4 2.1-.4 1 0 1.9.1 2.5.4.6.3 1.1.6 1.4 1.2s.5 1.2.7 1.9c.1.8.2 1.7.2 2.7v9.6h-4.1v-9.7c0-1-.1-1.7-.3-2-.2-.3-.6-.5-1.1-.5-.7 0-1.2.2-1.6.7-.3.5-.5 1-.5 1.5v10H141v-9.7c0-1-.1-1.7-.3-2s-.6-.5-1.1-.5c-.7 0-1.3.2-1.6.7-.3.5-.5 1-.5 1.6v9.9h-4.1zM165.8 59.5h-6.5L155 37.8h4.5l3.3 18.7 3.4-18.7h4.2l-4.6 21.7zM183.2 59.5c-.4 0-.9-.1-1.4-.2-.5-.2-1-.5-1.2-1-.4.5-.9.9-1.6 1.1s-1.5.4-2.5.4c-.7 0-1.3-.1-1.9-.2-.6-.2-1.1-.4-1.5-.8-.4-.4-.8-.9-1-1.5s-.4-1.4-.4-2.4c0-1.9.6-3.2 1.7-4 1.1-.8 2.8-1.2 4.9-1.2h1.4V49c0-.6-.1-1.1-.4-1.4-.3-.3-.8-.5-1.6-.5-.9 0-1.7.1-2.5.2s-1.5.3-2.3.5v-3.5c.3-.1.6-.2 1-.2.4-.1.8-.1 1.2-.2.4-.1.9-.1 1.3-.1h1.2c1.3 0 2.4.1 3.2.3s1.4.6 1.9 1c.4.5.7 1 .9 1.7.2.7.2 1.5.2 2.5v6.1c0 .3.1.6.2.7.2.2.5.3 1 .3v3.1h-1.8zm-5.6-3.2c.4 0 .8-.1 1-.2.3-.2.5-.3.6-.6.2-.2.3-.5.3-.7.1-.3.1-.5.1-.7v-1.4h-1.5c-.7 0-1.2.1-1.6.4-.4.3-.6.8-.6 1.5 0 .5.1.9.4 1.2.3.3.7.5 1.3.5zM194.3 59.4c-.2 0-.6.1-1.1.2-.5.1-1.1.1-1.7.1-1.3 0-2.2-.4-2.7-1.2-.5-.8-.7-2-.7-3.6V37.8h4.1v17c0 .5.1.8.2 1 .1.2.4.3.8.3h.7c.2 0 .4-.1.4-.1v3.4zM197 41.4v-3.6h4.4v3.6H197zm.1 18.1V44h4.1v15.5h-4.1zM204.8 52.1c0-1.6.1-2.9.4-4 .3-1.1.7-1.9 1.3-2.6s1.4-1.1 2.3-1.4c.9-.3 2.1-.4 3.4-.4h1.1v-6h4.1v21.7h-3.3l-.3-1.3c-.5.5-1.1.9-1.7 1.1-.6.3-1.4.4-2.2.4-.9 0-1.6-.1-2.3-.4s-1.2-.6-1.6-1.2c-.4-.6-.8-1.4-1-2.3-.1-.8-.2-2.1-.2-3.6zm6.2 4.1c.4 0 .7-.1.9-.2.3-.1.5-.3.7-.5.2-.2.4-.5.5-.8.1-.3.2-.6.2-.8v-6.6c-.2 0-.5 0-.7-.1s-.5 0-.7 0c-.5 0-1 .1-1.4.2-.4.1-.7.4-.9.8-.2.4-.4.9-.5 1.6s-.2 1.5-.2 2.6c0 .8 0 1.4.1 1.9s.2.9.4 1.2c.2.3.4.5.6.6s.7.1 1 .1zM232.4 59.5c-.4 0-.9-.1-1.4-.2-.5-.2-1-.5-1.2-1-.4.5-.9.9-1.6 1.1s-1.5.4-2.5.4c-.7 0-1.3-.1-1.9-.2-.6-.2-1.1-.4-1.5-.8-.4-.4-.8-.9-1-1.5-.2-.6-.4-1.4-.4-2.4 0-1.9.6-3.2 1.7-4 1.1-.8 2.8-1.2 4.9-1.2h1.4V49c0-.6-.2-1.1-.5-1.4s-.8-.5-1.6-.5c-.9 0-1.7.1-2.5.2s-1.5.3-2.3.5v-3.5c.3-.1.6-.2 1-.2.4-.1.8-.1 1.2-.2.4-.1.9-.1 1.3-.1h1.2c1.3 0 2.4.1 3.2.3.8.2 1.4.6 1.9 1s.7 1 .9 1.7c.2.7.2 1.5.2 2.5v6.1c0 .3.1.6.2.7.2.2.5.3 1 .3v3.1h-1.7zm-5.6-3.2c.4 0 .8-.1 1-.2.3-.2.5-.3.6-.6s.3-.5.3-.7c.1-.3.1-.5.1-.7v-1.4h-1.6c-.7 0-1.2.1-1.6.4-.4.3-.6.8-.6 1.5 0 .5.1.9.4 1.2.3.3.8.5 1.4.5zM242 47.6v7.3c0 .5.1.9.3 1.1s.5.3 1 .3c.3 0 .7 0 1.1-.1.4-.1.7-.1.9-.2v3.4c-.1 0-.3.1-.5.1-.2.1-.5.1-.8.1-.3 0-.6.1-1 .1h-.9c-.9 0-1.6-.1-2.1-.4-.5-.3-1-.7-1.3-1.1s-.5-1-.6-1.6c-.1-.6-.2-1.3-.2-1.9v-7.1h-2V44h2v-3.7h4.1V44h3.1v3.6H242zM247.9 41.4v-3.6h4.4v3.6h-4.4zm.2 18.1V44h4.1v15.5h-4.1zM269.1 51.4c0 1.6-.1 3-.4 4s-.7 1.9-1.3 2.5c-.6.6-1.3 1.1-2.1 1.3-.8.2-1.8.4-2.9.4s-2.1-.1-2.9-.4c-.8-.2-1.5-.7-2.1-1.3-.6-.6-1-1.5-1.3-2.5-.3-1.1-.4-2.4-.4-4 0-2.6.5-4.6 1.6-5.8 1-1.2 2.7-1.8 5.1-1.8s4 .6 5.1 1.8c1.1 1.3 1.6 3.2 1.6 5.8zm-4.2.5c0-.9 0-1.7-.1-2.3-.1-.6-.2-1.1-.4-1.5-.2-.4-.4-.6-.8-.8-.3-.2-.7-.2-1.2-.2s-.8.1-1.1.2c-.3.2-.6.4-.7.8-.2.4-.3.9-.4 1.5-.1.6-.1 1.4-.1 2.3 0 .9 0 1.6.1 2.2.1.6.2 1 .4 1.4.2.3.4.6.7.7.3.1.7.2 1.2.2s.9-.1 1.2-.2c.3-.1.6-.4.8-.7.2-.3.3-.8.4-1.4-.1-.6 0-1.3 0-2.2zM272.7 59.5V44h3.3l.3 1.2c.5-.5 1-.8 1.6-1.1.6-.3 1.3-.4 2.1-.4 1.1 0 1.9.1 2.6.4.7.2 1.2.6 1.5 1.1.4.5.6 1.2.7 1.9s.2 1.7.2 2.7v9.6h-4.1v-9.7c0-1-.1-1.7-.4-2s-.7-.5-1.3-.5c-.8 0-1.4.2-1.8.7-.4.5-.6 1-.6 1.5v10h-4.1zM288.4 59.5v-4h4.7v4h-4.7zM300.8 59.9c0 1-.1 1.8-.3 2.5-.2.7-.5 1.2-.9 1.5-.4.4-.9.7-1.5.8s-1.4.2-2.2.2h-1.4c-.4 0-.8-.1-1.3-.1v-3.5c.3 0 .6.1 1 .1h1c.6 0 .9-.1 1.1-.3.2-.2.3-.6.3-1.1V44h4.1v15.9zm-4.3-18.5v-3.6h4.4v3.6h-4.4zM314.7 54.8c0 1-.2 1.7-.5 2.4s-.7 1.1-1.3 1.5c-.5.4-1.2.7-2 .8s-1.6.2-2.5.2h-1.2c-.4 0-.8-.1-1.2-.1-.4-.1-.7-.1-1.1-.2-.3-.1-.6-.1-.8-.2v-3.5c.4.1 1 .2 1.6.4.7.1 1.4.2 2.1.2s1.3-.1 1.8-.2c.5-.2.7-.5.7-1.1 0-.5-.1-.8-.4-1.1-.3-.2-.8-.4-1.6-.6-1.6-.3-2.7-.8-3.4-1.6-.7-.8-1-1.8-1-3.2 0-1.7.5-3 1.6-3.7 1.1-.7 2.7-1.1 4.9-1.1.3 0 .6 0 1 .1.4 0 .7.1 1 .1.3.1.6.1.9.2.3.1.5.1.6.2v3.5c-.5-.1-1-.3-1.6-.4-.6-.1-1.3-.2-2.1-.2s-1.3.1-1.6.3c-.3.2-.5.5-.5 1 0 .4.2.7.5.9.3.2.8.3 1.5.4 1.6.3 2.7.8 3.4 1.7.9.8 1.2 1.9 1.2 3.3z"/>
  <path  fill="#ed0044" d="M62.5 6.1c7 6.3 9 19 5.9 29.9-3.1 10.8-11.3 19.6-21.8 25.3-10.5 5.6-23.3 8-31 3.1-7.8-5-10.6-17.2-13-29.1C.1 23.4-1.9 11.7 3 5.9 7.9.1 19.7.1 31.6 0c11.9-.1 23.9-.3 30.9 6.1z"/>
  <path fill="#FFF" d="M15.6 17.8v4.1h4.3v2.4h-4.3v6.5h-3V15.4h7.8v2.4h-4.8zM32.6 22.9c0 1.3-.1 2.5-.2 3.5s-.4 1.8-.7 2.5c-.4.7-.9 1.2-1.6 1.5-.7.3-1.5.5-2.6.5s-2-.2-2.6-.5c-.7-.3-1.2-.8-1.6-1.5s-.6-1.5-.7-2.5c-.1-1-.2-2.2-.2-3.5 0-1.3.1-2.4.2-3.4s.4-1.8.8-2.4c.4-.6.9-1.1 1.6-1.4s1.5-.5 2.6-.5c1 0 1.9.2 2.6.5.7.3 1.2.8 1.6 1.4.4.6.6 1.4.8 2.4-.1 1 0 2.1 0 3.4zm-3.1.1c0-1.1 0-2-.1-2.7-.1-.7-.2-1.3-.3-1.7-.2-.4-.4-.7-.6-.8-.3-.1-.6-.2-1-.2s-.7.1-1 .2-.5.4-.6.8-.3 1-.3 1.7c-.1.7-.1 1.6-.1 2.7s0 2 .1 2.7c.1.7.2 1.3.3 1.7.2.4.4.7.6.9.3.2.6.3 1 .3s.7-.1 1-.3c.3-.2.5-.5.6-.9.2-.4.3-1 .3-1.7.1-.7.1-1.6.1-2.7zM44.1 20c0 1.2-.2 2.2-.5 2.9-.4.7-.9 1.2-1.5 1.5l2.7 6.3h-3.4l-2.3-5.8h-.9v5.8h-3V15.4c.4 0 .9-.1 1.3-.1s.8-.1 1.3-.1h1.4c.9 0 1.7.1 2.4.3.6.2 1.1.5 1.5.9.4.4.6.9.8 1.5.1.6.2 1.3.2 2.1zm-3 .2c0-.9-.1-1.5-.3-1.8s-.6-.5-1.2-.5c-.3 0-.7 0-.9.1-.2 0-.3.1-.4.1v4.4h1.4c.5 0 .8-.2 1.1-.5.1-.5.3-1.1.3-1.8zM55.6 30.7V17.6l-1.9 8h-2.3l-2-8v13.1h-2.7V15.4h4.5l1.3 5.9 1.3-5.9h4.3v15.3h-2.5z"/>
</svg>
